<?xml version="1.0" encoding="utf-8"?>
<!-- Generator: Adobe Illustrator 24.0.2, SVG Export Plug-In . SVG Version: 6.00 Build 0)  -->
<svg version="1.1" id="Layer_1" xmlns="http://www.w3.org/2000/svg" xmlns:xlink="http://www.w3.org/1999/xlink" x="0px" y="0px"
	 viewBox="0 0 900 647" style="enable-background:new 0 0 900 647;" xml:space="preserve">
<style type="text/css">
	.st0{fill:url(#SVGID_1_);}
</style>
<linearGradient id="SVGID_1_" gradientUnits="userSpaceOnUse" x1="21.1993" y1="1499.5887" x2="884" y2="1499.5887" gradientTransform="matrix(1 0 0 -1 0 1822)">
	<stop  offset="0.1975" style="stop-color:#1C4997"/>
	<stop  offset="1" style="stop-color:#16B598"/>
</linearGradient>
<path class="st0" d="M342.75,344.66c5.1,8.64,9.9,16.44,14.37,24.45c18.23,32.57,36.47,65.12,54.35,97.88
	c1.58,2.91,2.09,8,0.6,10.73c-9.93,18.3-19.84,36.68-31.09,54.18c-31.81,49.55-74.81,84.43-133.87,95.41
	c-69.26,12.88-126.58-10.79-173.5-61.3C14.33,502.17,4.95,418.28,47.45,342.07c48.76-87.41,97.68-174.75,146.14-262.33
	c24.78-44.8,63.64-65.47,113.32-65.25c50.2,0.22,87.9,24.15,112.46,67.71c24.84,44.09,48.57,88.81,73.11,133.08
	c47.12,85.01,94.44,169.91,141.7,254.86c15.89,28.55,49.88,40.57,79.94,28.32c30.33-12.36,47.05-45.34,38.66-76.61
	c-0.96-3.58-2.65-7.03-4.46-10.3c-36.69-65.99-74.49-131.39-109.71-198.15c-15.8-29.96-54.18-37.69-76.39-6.23
	c-1.35-2.01-2.68-3.72-3.74-5.59c-22.15-39.65-44.15-79.38-66.53-118.9c-3.06-5.4-2.63-9.01,0.8-13.92
	C547.09-8.74,665.53-2.94,711.76,80.12c51.36,92.26,103.57,184.1,152.14,277.81c29.28,56.51,25.69,116.05-5.08,171.72
	c-35.92,64.99-92.73,99.9-166.98,100.61c-74.6,0.7-132.32-33.12-169.34-98.03c-60.46-106.05-119.45-212.94-178.83-319.6
	c-8.62-15.49-20.61-24.86-38.66-24.77c-18.07,0.09-29.85,9.74-38.41,25.21c-36.52,66.08-73.43,131.96-110.17,197.91
	c-14.21,25.51-6.9,58.49,17.21,77.85c24.06,19.32,55.99,19.67,77.57-1.18c11.7-11.32,21.92-24.72,30.49-38.62
	c19.27-31.27,37.1-63.42,55.53-95.21C338.8,351.09,340.48,348.4,342.75,344.66z"/>
</svg>
